<?xml version="1.0" encoding="UTF-8"?>
<svg width="14px" height="14px" viewBox="0 0 14 14" version="1.1" xmlns="http://www.w3.org/2000/svg" xmlns:xlink="http://www.w3.org/1999/xlink">
    <!-- Generator: Sketch 63.1 (92452) - https://sketch.com -->
    <title>Icon</title>
    <desc>Created with Sketch.</desc>
    <g id="页面-1" stroke="none" stroke-width="1" fill="none" fill-rule="evenodd">
        <g id="LISA快捷菜单" transform="translate(-79.000000, -256.000000)" fill="#99E7FF">
            <g id="编组" transform="translate(48.000000, 86.000000)">
                <g id="Tree-/-二级" transform="translate(0.000000, 166.000000)">
                    <g id="#Icon-/-Font-/-f_cmd">
                        <g transform="translate(30.000000, 3.000000)">
                            <path d="M5.05372175,7.64644661 C5.23271205,7.82543691 5.2476279,8.10637 5.09846932,8.30235076 L5.05372175,8.35355339 L3.16810366,10.2391715 C2.45214246,10.9551327 2.45214246,12.1159351 3.16810366,12.8318963 C3.85754778,13.5213405 4.95949216,13.5468754 5.67949186,12.9085012 L5.76082853,12.8318963 L7.64644661,10.9462783 C7.84170876,10.7510161 8.15829124,10.7510161 8.35355339,10.9462783 C8.53254369,11.1252686 8.54745955,11.4062016 8.39830097,11.6021824 L8.35355339,11.653385 L6.46793531,13.5390031 C5.36144981,14.6454886 3.56748237,14.6454886 2.46099688,13.5390031 C1.38705508,12.4650613 1.35546855,10.743483 2.36623731,9.63144491 L2.46099688,9.53206469 L4.34661496,7.64644661 C4.54187711,7.45118446 4.8584596,7.45118446 5.05372175,7.64644661 Z M10.3535534,5.64644661 C10.5310644,5.82395765 10.5472018,6.10173344 10.4019655,6.29747444 L10.3535534,6.35355339 L6.35355339,10.3535534 C6.15829124,10.5488155 5.84170876,10.5488155 5.64644661,10.3535534 C5.46893557,10.1760423 5.4527982,9.89826656 5.59803451,9.70252556 L5.64644661,9.64644661 L9.64644661,5.64644661 C9.84170876,5.45118446 10.1582912,5.45118446 10.3535534,5.64644661 Z M13.5390031,2.46099688 C14.6129449,3.53493868 14.6445314,5.25651703 13.6337627,6.36855509 L13.5390031,6.46793531 L11.653385,8.35355339 C11.4581229,8.54881554 11.1415404,8.54881554 10.9462783,8.35355339 C10.767288,8.17456309 10.7523721,7.89363 10.9015307,7.69764924 L10.9462783,7.64644661 L12.8318963,5.76082853 C13.5478575,5.04486732 13.5478575,3.88406486 12.8318963,3.16810366 C12.1424522,2.47865954 11.0405078,2.45312457 10.3205081,3.09149876 L10.2391715,3.16810366 L8.35355339,5.05372175 C8.15829124,5.24898389 7.84170876,5.24898389 7.64644661,5.05372175 C7.46745631,4.87473144 7.45254045,4.59379836 7.60169903,4.39781759 L7.64644661,4.34661496 L9.53206469,2.46099688 C10.6385502,1.35451139 12.4325176,1.35451139 13.5390031,2.46099688 Z" id="形状"></path>
                        </g>
                    </g>
                </g>
            </g>
        </g>
    </g>
</svg>