<?xml version="1.0" encoding="UTF-8"?>
<svg width="16px" height="12px" viewBox="0 0 16 12" version="1.1" xmlns="http://www.w3.org/2000/svg" xmlns:xlink="http://www.w3.org/1999/xlink">
    <!-- Generator: Sketch 63.1 (92452) - https://sketch.com -->
    <title>Icon</title>
    <desc>Created with Sketch.</desc>
    <g id="页面-1" stroke="none" stroke-width="1" fill="none" fill-rule="evenodd">
        <g id="LISA快捷菜单" transform="translate(-78.000000, -213.000000)" fill="#CCCCCC">
            <g id="编组" transform="translate(48.000000, 86.000000)">
                <g id="Tree-/-二级" transform="translate(0.000000, 122.000000)">
                    <g id="#Icon-/-Font-/-f_cmd">
                        <g transform="translate(30.000000, 3.000000)">
                            <path d="M3.0699117,2.00108503 L12.7694481,2 C13.6609669,2 13.9842531,2.09282561 14.310179,2.2671327 C14.636105,2.4414398 14.8918935,2.69722837 15.0662006,3.0231543 L15.1277242,3.14636777 C15.2622637,3.43878041 15.3333333,3.7838063 15.3333333,4.5638852 L15.3333333,11.4361148 C15.3333333,12.3276335 15.2405077,12.6509198 15.0662006,12.9768457 C14.8918935,13.3027716 14.636105,13.5585602 14.310179,13.7328673 L14.1869656,13.7943909 C13.8945529,13.9289304 13.549527,14 12.7694481,14 L3.23055187,14 C2.33903313,14 2.01574689,13.9071744 1.68982096,13.7328673 C1.36389504,13.5585602 1.10810646,13.3027716 0.93379937,12.9768457 L0.872275812,12.8536322 C0.747346242,12.5821062 0.677143294,12.2652147 0.667751697,11.596755 L0.666666667,4.5638852 C0.666666667,3.67236646 0.759492278,3.34908022 0.93379937,3.0231543 C1.10810646,2.69722837 1.36389504,2.4414398 1.68982096,2.2671327 L1.81303443,2.20560914 C2.08456046,2.08067958 2.40145199,2.01047663 3.0699117,2.00108503 Z M12.9043974,3.00060747 L3.09560259,3.00060747 L2.86391395,3.0056783 C2.48212857,3.0199456 2.32306291,3.06249823 2.16141982,3.1489459 C2.00976237,3.2300532 1.89671986,3.3430957 1.81561257,3.49475316 C1.71344714,3.6857859 1.67258966,3.87321876 1.66727413,4.42893592 L1.66727413,11.5710641 L1.67234497,11.8027527 C1.68661227,12.1845381 1.7291649,12.3436038 1.81561257,12.5052468 C1.89671986,12.6569043 2.00976237,12.7699468 2.16141982,12.8510541 C2.33775774,12.9453606 2.5110283,12.9874285 2.97372849,12.9975232 L3.23055187,13 L12.7694481,13 C13.4313001,13 13.6328526,12.9610784 13.8385802,12.8510541 C13.9902376,12.7699468 14.1032801,12.6569043 14.1843874,12.5052468 C14.278694,12.3289089 14.3207618,12.1556384 14.3308566,11.6929382 L14.3333333,11.4361148 L14.3333333,4.5638852 C14.3333333,3.90203328 14.2944117,3.70048072 14.1843874,3.49475316 C14.1032801,3.3430957 13.9902376,3.2300532 13.8385802,3.1489459 C13.6475474,3.04678047 13.4601146,3.005923 12.9043974,3.00060747 Z M6.68688672,5.31311328 C6.86439777,5.49062432 6.88053513,5.76840011 6.73529883,5.9641411 L6.68688672,6.02022006 L4.70733333,8 L6.68688672,9.97977994 C6.86439777,10.157291 6.88053513,10.4350668 6.73529883,10.6308078 L6.68688672,10.6868867 C6.50937568,10.8643978 6.23159989,10.8805351 6.0358589,10.7352988 L5.97977994,10.6868867 L3.64644661,8.35355339 C3.46893557,8.17604235 3.4527982,7.89826656 3.59803451,7.70252556 L3.64644661,7.64644661 L5.97977994,5.31311328 C6.17504209,5.11785113 6.49162458,5.11785113 6.68688672,5.31311328 Z M12,9.5 C12.2761424,9.5 12.5,9.72385763 12.5,10 C12.5,10.2531305 12.3118974,10.4623273 12.067847,10.4954356 L12,10.5 L9,10.5 C8.72385763,10.5 8.5,10.2761424 8.5,10 C8.5,9.74686949 8.68810259,9.53767269 8.93215296,9.50456441 L9,9.5 L12,9.5 Z" id="形状"></path>
                        </g>
                    </g>
                </g>
            </g>
        </g>
    </g>
</svg>